<svg id="Layer_1" data-name="Layer 1" xmlns="http://www.w3.org/2000/svg" viewBox="0 0 103.54 101.47"><defs><style>.cls-1,.cls-2,.cls-4,.cls-6{fill:none;}.cls-1,.cls-2,.cls-4{stroke:#45152d;stroke-miterlimit:10;}.cls-1,.cls-2{stroke-width:3px;}.cls-2{stroke-dasharray:9.63 5.78;}.cls-3{fill:#fff;}.cls-4{stroke-width:4px;}.cls-5{fill:#fbac46;}</style></defs><title>Artboard 1</title><polyline class="cls-1" points="96.41 57.89 100.33 61 96.41 64.11"/><line class="cls-2" x1="91.89" y1="67.71" x2="57.95" y2="94.65"/><polyline class="cls-1" points="55.69 96.45 51.77 99.56 47.85 96.45"/><line class="cls-2" x1="43.33" y1="92.86" x2="9.39" y2="65.91"/><polyline class="cls-1" points="7.13 64.11 3.22 61 7.13 57.89"/><line class="cls-2" x1="11.66" y1="54.3" x2="45.59" y2="27.35"/><polyline class="cls-1" points="47.85 25.56 51.77 22.45 55.69 25.56"/><line class="cls-2" x1="60.21" y1="29.15" x2="94.15" y2="56.1"/><polygon class="cls-3" points="100.33 51.11 51.77 89.67 3.22 51.11 51.77 12.55 100.33 51.11"/><polygon class="cls-4" points="100.33 51.11 51.77 89.67 3.22 51.11 51.77 12.55 100.33 51.11"/><polygon class="cls-3" points="100.33 41.11 51.77 79.67 3.22 41.11 51.77 2.55 100.33 41.11"/><polygon class="cls-4" points="100.33 41.11 51.77 79.67 3.22 41.11 51.77 2.55 100.33 41.11"/><polygon class="cls-5" points="83.72 52.72 68.04 66.39 20.69 27.64 36.36 14.96 83.72 52.72"/><polygon class="cls-4" points="83.72 52.72 68.04 66.39 20.69 27.64 36.36 14.96 83.72 52.72"/><line class="cls-6" x1="43.16" y1="7.5" x2="91.71" y2="46.05"/><line class="cls-4" x1="43.16" y1="7.5" x2="91.71" y2="46.05"/></svg>